<svg width="806" height="713" viewBox="0 0 806 713" fill="none" xmlns="http://www.w3.org/2000/svg">
<g clip-path="url(#clip0_112_133)">
<path d="M770.296 711.767L769.223 711.364C768.987 711.275 745.514 702.282 734.518 681.891C723.522 661.498 728.907 636.945 728.962 636.7L729.216 635.582L730.288 635.984C730.524 636.073 753.996 645.066 764.993 665.458C775.989 685.851 770.604 710.403 770.549 710.648L770.296 711.767ZM736.279 680.942C745.576 698.183 764.124 707.021 768.824 709.038C769.718 704.001 772.52 683.632 763.232 666.407C753.945 649.185 735.389 640.333 730.687 638.311C729.793 643.351 726.992 663.718 736.279 680.942Z" fill="#3F3D56"/>
<path d="M742.921 674.736C762.681 686.625 770.292 710.239 770.292 710.239C770.292 710.239 745.864 714.578 726.103 702.689C706.343 690.801 698.732 667.187 698.732 667.187C698.732 667.187 723.16 662.848 742.921 674.736Z" fill="#01A4FF"/>
<path d="M424.793 381.963C425.75 380.482 427.01 379.22 428.49 378.26C429.97 377.299 431.635 376.663 433.378 376.391C435.121 376.119 436.901 376.219 438.603 376.683C440.305 377.148 441.889 377.967 443.252 379.086C443.682 379.442 444.087 379.828 444.463 380.241L493.674 373.077L496.412 336.072C496.622 333.233 497.951 330.593 500.107 328.734C502.262 326.875 505.068 325.948 507.907 326.158C510.746 326.368 513.386 327.697 515.245 329.852C517.104 332.008 518.031 334.814 517.821 337.653C517.816 337.719 517.81 337.785 517.804 337.85L513.007 389.776L512.984 389.891C512.36 391.887 511.109 393.629 509.416 394.857C507.724 396.086 505.681 396.736 503.589 396.712L445.707 395.712C445.482 396.055 445.24 396.386 444.981 396.704C443.861 398.067 442.466 399.178 440.887 399.964C439.308 400.751 437.58 401.194 435.818 401.266C434.055 401.339 432.298 401.037 430.66 400.383C429.022 399.728 427.54 398.735 426.313 397.468C426.064 397.213 425.828 396.949 425.605 396.677C423.937 394.623 422.96 392.094 422.814 389.452C422.668 386.809 423.361 384.189 424.793 381.963Z" fill="#FFB7B7"/>
<path d="M524.006 697.478L509.97 697.477L503.293 643.34L524.008 643.341L524.006 697.478Z" fill="#FFB7B7"/>
<path d="M527.585 711.083L482.328 711.082V710.509C482.328 705.838 484.184 701.357 487.488 698.054C490.791 694.751 495.272 692.895 499.943 692.895H499.944L527.585 692.896L527.585 711.083Z" fill="#2F2E41"/>
<path d="M622.082 684.755L608.798 689.285L585 640.203L604.607 633.516L622.082 684.755Z" fill="#FFB7B7"/>
<path d="M629.862 696.476L587.028 711.085L586.843 710.543C585.335 706.122 585.646 701.282 587.706 697.089C589.766 692.896 593.407 689.693 597.828 688.185L597.829 688.184L623.991 679.262L629.862 696.476Z" fill="#2F2E41"/>
<path d="M539.462 224.126C539.462 224.126 525.492 219.513 516.511 237.967C507.53 256.422 493.561 276.722 493.561 276.722L501.543 278.567C501.543 278.567 503.539 265.649 508.528 263.803L506.533 280.412C506.533 280.412 566.404 299.79 593.346 278.567L592.348 272.108C592.348 272.108 596.339 273.031 596.339 278.567L599.333 275.799C599.333 275.799 596.339 270.262 587.358 262.881C581.464 258.036 579.438 248.818 578.742 243.055C578.19 238.176 576.098 233.599 572.769 229.99C566.801 223.594 555.926 216.796 539.462 224.126Z" fill="#2F2E41"/>
<path d="M544.611 288.605C558.703 288.605 570.126 277.181 570.126 263.089C570.126 248.998 558.703 237.574 544.611 237.574C530.519 237.574 519.096 248.998 519.096 263.089C519.096 277.181 530.519 288.605 544.611 288.605Z" fill="#FFB7B7"/>
<path d="M510.591 309.613L505.952 308.066C505.952 308.066 496.673 311.932 496.673 318.891C496.673 325.85 495.127 353.684 495.127 353.684L516.003 356.004L510.591 309.613Z" fill="#CBCBCB"/>
<path d="M593.622 461.698C591.698 459.542 590.611 456.767 590.561 453.877C590.51 450.988 591.498 448.176 593.346 445.954L580.322 336.887C580.195 334.315 581.093 331.798 582.82 329.887C584.546 327.976 586.96 326.829 589.532 326.696C592.104 326.564 594.623 327.457 596.537 329.18C598.451 330.903 599.603 333.315 599.741 335.886C599.742 335.922 599.744 335.958 599.745 335.993L611.396 445.176C611.819 445.6 612.208 446.056 612.561 446.539C613.495 447.832 614.166 449.295 614.535 450.847C614.904 452.398 614.963 454.007 614.71 455.582C614.457 457.156 613.897 458.666 613.06 460.024C612.224 461.381 611.129 462.561 609.836 463.496C609.702 463.593 609.567 463.687 609.429 463.778C607.933 464.768 606.236 465.415 604.46 465.671C602.685 465.928 600.874 465.789 599.159 465.263C597.017 464.614 595.099 463.379 593.622 461.698Z" fill="#FFB7B7"/>
<path d="M581.695 353.684L602.571 351.364C602.571 351.364 601.025 323.529 601.025 316.571C601.025 309.612 591.747 305.746 591.747 305.746L587.108 307.292L581.695 353.684Z" fill="#CBCBCB"/>
<path d="M513.683 392.303C513.683 392.303 495.9 424.816 495.9 464.249C495.9 503.681 494.354 684.607 494.354 684.607C494.354 684.607 517.549 695.432 531.466 682.288L543.838 482.032L592.548 678.422C592.548 678.422 615.744 683.061 626.569 675.329L605.693 538.475C605.693 538.475 597.188 410.126 573.992 400.847C550.796 391.569 513.683 392.303 513.683 392.303Z" fill="#2F2E41"/>
<path d="M517.04 263.249C526.073 256.712 533.384 249.183 538.221 240.227C538.221 240.227 554.797 258.645 564.927 259.566C575.057 260.487 565.848 237.464 565.848 237.464L547.43 232.859L529.933 234.701L516.119 243.91L517.04 263.249Z" fill="#2F2E41"/>
<path d="M570.126 301.109C570.126 301.109 570.862 300.714 526.83 302.318L508.401 307.394L505.951 308.068C505.951 308.068 508.271 354.459 514.456 362.964C520.642 371.47 519.095 376.109 517.549 376.882C516.003 377.655 512.137 376.109 514.456 379.975C516.776 383.841 519.868 381.521 516.776 383.841C513.683 386.16 512.137 394.665 512.137 394.665L580.177 403.943C580.177 403.943 582.497 373.789 588.682 358.325C594.868 342.862 596.414 336.676 596.414 336.676L591.775 305.749L570.126 301.109Z" fill="#CBCBCB"/>
<path d="M440.767 169.224H436.855V62.0368C436.855 45.5837 430.319 29.8044 418.685 18.1702C407.051 6.53604 391.271 2.65219e-05 374.818 2.33258e-10L147.728 2.33265e-10C131.275 -4.50866e-05 115.496 6.53591 103.862 18.17C92.2275 29.8041 85.6915 45.5834 85.6914 62.0366V650.072C85.6914 666.525 92.2274 682.304 103.862 693.938C115.496 705.572 131.275 712.108 147.728 712.108H374.818C382.965 712.108 391.032 710.504 398.558 707.386C406.085 704.269 412.924 699.699 418.684 693.938C424.445 688.178 429.015 681.339 432.132 673.812C435.25 666.286 436.855 658.219 436.855 650.072V245.521H440.767L440.767 169.224Z" fill="#3F3D56"/>
<path d="M423.651 62.4746V649.645C423.656 655.723 422.464 661.744 420.143 667.362C417.822 672.98 414.417 678.086 410.122 682.388C405.828 686.69 400.728 690.104 395.114 692.435C389.5 694.766 383.482 695.969 377.403 695.975H149.141C136.862 695.983 125.082 691.114 116.394 682.438C107.705 673.761 102.819 661.989 102.811 649.71V62.4745C102.806 56.3947 104 50.3735 106.322 44.7548C108.645 39.1361 112.052 34.03 116.348 29.7278C120.644 25.4257 125.745 22.0118 131.361 19.6812C136.976 17.3506 142.995 16.1488 149.075 16.1445H176.821C175.457 19.4866 174.937 23.1126 175.306 26.703C175.674 30.2935 176.92 33.7383 178.933 36.7338C180.947 39.7293 183.666 42.1837 186.852 43.8806C190.037 45.5775 193.591 46.4649 197.201 46.4646H327.301C330.91 46.4649 334.464 45.5775 337.65 43.8806C340.835 42.1837 343.554 39.7293 345.568 36.7338C347.581 33.7383 348.827 30.2935 349.196 26.703C349.564 23.1126 349.044 19.4866 347.681 16.1445H377.321C389.597 16.1335 401.375 20.9998 410.064 29.6728C418.752 38.3457 423.64 50.115 423.651 62.3915L423.651 62.4746Z" fill="white"/>
<path d="M423.65 149.341V129.341H393.38V19.0008C388.239 17.1021 382.801 16.1336 377.32 16.1407H373.38V129.341H268.38V46.4608H248.38V129.341H160.38V16.1408H149.141C146.201 16.1362 143.267 16.4141 140.38 16.9708V129.341H102.811V149.341H140.38V195.601L102.811 217.291V240.391L140.38 218.701V356.341H102.811V376.341H140.38V575.341H102.811V595.341H140.38V695.141C143.267 695.697 146.201 695.975 149.141 695.971H160.38V595.341H248.38V695.971H268.38V595.341H373.38V695.971H377.32C382.801 695.978 388.239 695.009 393.38 693.111V595.341H423.65V575.341H393.38V488.341H423.38V468.341H393.38V376.341H423.65V356.341H393.38V234.341H423.65V214.341H393.38V149.341L423.65 149.341ZM220.511 149.341L160.381 184.061L160.38 149.341H220.511ZM160.38 207.151L248.38 156.341V356.341H160.38V207.151ZM160.38 575.341V376.341H248.38V575.341H160.38ZM373.38 575.341H268.38V488.341H373.38V575.341ZM373.38 468.341H268.38V376.341H373.38V468.341ZM373.38 356.341H268.38V234.341H373.38V356.341ZM373.38 214.341H268.38V149.341H373.38V214.341Z" fill="#E5E5E5"/>
<path d="M440.381 214.711C440.381 278.224 325.381 419.711 325.381 419.711C325.381 419.711 210.381 278.224 210.381 214.711C210.381 184.211 222.497 154.96 244.064 133.394C265.63 111.827 294.881 99.7109 325.381 99.7109C355.881 99.7109 385.131 111.827 406.698 133.394C428.265 154.96 440.381 184.211 440.381 214.711Z" fill="#01A4FF"/>
<path d="M393.383 209.711C393.383 223.16 389.395 236.307 381.923 247.49C374.451 258.672 363.831 267.388 351.405 272.535C338.98 277.681 325.307 279.028 312.117 276.404C298.926 273.781 286.81 267.304 277.3 257.794C267.79 248.284 261.313 236.168 258.689 222.977C256.066 209.786 257.412 196.114 262.559 183.688C267.706 171.263 276.422 160.643 287.604 153.171C298.787 145.699 311.934 141.711 325.383 141.711C334.309 141.707 343.148 143.461 351.396 146.873C359.644 150.285 367.139 155.288 373.453 161.596C379.768 167.905 384.778 175.396 388.197 183.64C391.617 191.885 393.379 200.723 393.383 209.649V209.711Z" fill="white"/>
<path d="M325.146 236.557C339.137 236.557 350.479 225.215 350.479 211.224C350.479 197.233 339.137 185.891 325.146 185.891C311.155 185.891 299.812 197.233 299.812 211.224C299.812 225.215 311.155 236.557 325.146 236.557Z" fill="#01A4FF"/>
<path d="M361.912 269.081C350.991 276.026 338.317 279.713 325.375 279.711C312.434 279.709 299.761 276.019 288.842 269.071C291.113 261.133 295.907 254.151 302.5 249.181C309.092 244.21 317.124 241.522 325.38 241.523C333.637 241.525 341.668 244.215 348.259 249.187C354.851 254.159 359.643 261.143 361.912 269.081Z" fill="#01A4FF"/>
<path d="M325.381 502.711C342.502 502.711 356.381 488.832 356.381 471.711C356.381 454.59 342.502 440.711 325.381 440.711C308.26 440.711 294.381 454.59 294.381 471.711C294.381 488.832 308.26 502.711 325.381 502.711Z" fill="#01A4FF"/>
<path d="M805 712.711H1C0.734784 712.711 0.48043 712.606 0.292893 712.418C0.105357 712.231 0 711.976 0 711.711C0 711.446 0.105357 711.191 0.292893 711.004C0.48043 710.816 0.734784 710.711 1 710.711H805C805.265 710.711 805.52 710.816 805.707 711.004C805.895 711.191 806 711.446 806 711.711C806 711.976 805.895 712.231 805.707 712.418C805.52 712.606 805.265 712.711 805 712.711Z" fill="#CBCBCB"/>
</g>
<defs>
<clipPath id="clip0_112_133">
<rect width="806" height="712.713" fill="white"/>
</clipPath>
</defs>
</svg>
