<svg width="1144" height="715" viewBox="0 0 1144 715" fill="none" xmlns="http://www.w3.org/2000/svg">
<g clip-path="url(#clip0_112_134)">
<path opacity="0.1" d="M1144 494.199C1144.08 465.333 1137.22 436.871 1123.99 411.214C1110.76 385.557 1091.56 363.457 1068 346.779C1068.65 340.543 1068.99 334.278 1069 328.009C1069 228.869 989.761 148.499 892.001 148.499C861.898 148.467 832.3 156.232 806.091 171.039C736.901 125.519 646.571 97.9688 547.751 97.9688C386.961 97.9688 248.651 170.919 187.291 275.519C183.881 275.319 180.451 275.209 176.991 275.209C79.2506 275.209 -0.00941097 355.579 -0.00941097 454.719C-0.078824 489.745 10.0424 524.035 29.1206 553.409C29.1206 642.609 113.311 714.909 217.121 714.909H970.241C1051.78 714.909 1117.88 658.139 1117.88 588.099C1135.03 559.786 1144.07 527.302 1144 494.199Z" fill="#01A4FF"/>
<path d="M828.581 164.129C821.041 167.309 813.481 170.499 806.461 174.699C803.271 176.599 800.211 178.699 796.931 180.429C793.401 182.309 789.651 183.729 785.931 185.249C775.665 189.442 765.695 194.326 756.091 199.869C756.921 189.119 755.351 177.439 748.921 169.059C747.976 167.817 746.925 166.659 745.781 165.599C741.231 161.379 734.781 160.289 730.311 156.599C733.031 151.819 739.071 147.479 743.181 143.829C747.621 139.902 752.227 136.179 757.001 132.659C766.541 125.613 776.699 119.445 787.351 114.229C794.111 110.919 801.171 107.959 808.631 106.949C809.57 106.737 810.553 106.825 811.441 107.199C812.601 107.839 813.021 109.279 813.301 110.569C814.691 117.019 815.401 123.639 816.561 130.139C817.129 133.479 817.901 136.782 818.871 140.029C820.117 143.869 821.556 147.643 823.181 151.339C824.987 155.599 826.787 159.862 828.581 164.129Z" fill="#FBBEBE"/>
<path d="M614.57 346.41C614.568 359.685 610.372 372.619 602.583 383.368C594.793 394.117 583.807 402.13 571.192 406.265C558.578 410.399 544.98 410.444 532.339 406.392C519.698 402.339 508.66 394.398 500.8 383.7C492.847 372.895 488.562 359.827 488.57 346.41C488.57 329.702 495.208 313.677 507.023 301.862C518.837 290.048 534.862 283.41 551.57 283.41C568.279 283.41 584.303 290.048 596.118 301.862C607.933 313.677 614.57 329.702 614.57 346.41Z" fill="#BE6F72"/>
<path d="M529 401.928C532.37 407.738 535.77 413.598 537.93 419.928C540.09 426.258 540.93 433.268 539.15 439.738C560.61 428.438 586.15 429.348 609.77 423.628C610.401 423.556 610.983 423.249 611.4 422.768C611.543 422.44 611.617 422.086 611.617 421.728C611.617 421.37 611.543 421.016 611.4 420.688C606.455 402.39 604.553 383.404 605.77 364.488L593.44 371.778C588.042 375.112 582.449 378.118 576.69 380.778C568.54 384.348 559.89 386.508 551.38 389.008C544.64 391.008 531.26 393.598 527.02 399.488C527.784 400.211 528.45 401.031 529 401.928Z" fill="#BE6F72"/>
<path d="M494.29 317.209C490.19 318.859 485.37 320.759 481.6 318.449C478.83 316.739 477.69 313.189 477.86 309.939C478.03 306.689 479.27 303.609 480.25 300.509C482.25 294.139 483.33 287.509 485.56 281.169C487.79 274.829 491.43 268.719 497.21 265.369C507.85 259.209 521.62 264.299 533.43 260.889C538.43 259.459 542.78 256.579 547.43 254.319C552.08 252.059 557.31 250.319 562.33 251.529C568.21 252.899 572.55 257.849 578.03 260.369C584.03 263.129 591.21 262.939 596.67 266.629C600.54 269.249 602.98 273.479 605.15 277.629C612.093 290.966 617.575 305.015 621.5 319.529C623.07 324.727 623.967 330.104 624.17 335.529C624.22 342.469 622.34 349.269 620.48 355.969L617.48 366.569C616.37 370.569 615.23 374.569 613.13 378.189C611.03 381.809 607.79 384.859 603.78 385.909C598.78 387.199 592.96 384.699 590.78 380.019C589.44 377.119 589.5 373.799 589.43 370.609C589.32 364.362 588.65 358.137 587.43 352.009C586.81 348.939 585.98 345.749 583.89 343.429C581.19 340.429 576.89 339.429 572.89 339.359C568.21 339.299 563.08 340.569 560.35 344.359C558.16 347.419 557.78 351.719 554.87 354.109C553.577 355.102 552.039 355.727 550.42 355.919C547.119 356.331 543.775 355.623 540.924 353.91C538.072 352.197 535.877 349.577 534.69 346.469C533.77 343.829 533.32 340.549 530.82 339.309C529.52 338.659 527.97 338.779 526.58 338.359C522.32 337.069 521.2 331.669 520.81 327.239C520.36 322.049 522.09 311.799 515.64 311.449C508.69 311.069 500.68 315.079 494.29 317.209Z" fill="#3F3D56"/>
<path d="M509.399 385.501C507.179 386.571 504.749 387.821 503.879 390.121C503.539 391.021 503.479 392.011 503.169 392.931C501.759 397.001 496.259 397.801 493.419 401.041C492.139 402.679 491.277 404.604 490.909 406.651C489.012 414.721 489.626 423.179 492.669 430.891C493.551 433.335 494.911 435.578 496.669 437.491C501.749 442.671 510.509 442.571 516.839 439.041C523.169 435.511 527.539 429.321 531.249 423.041C533.216 419.88 534.861 416.53 536.159 413.041C537.3 409.493 538.114 405.847 538.589 402.151C540.809 387.741 543.709 371.761 542.709 357.151C539.709 356.961 533.979 356.751 531.329 358.631C528.009 360.991 528.929 365.751 527.729 369.201C524.889 377.501 516.649 381.881 509.399 385.501Z" fill="#3F3D56"/>
<path d="M512 387.41C508.25 387.64 501.53 383.49 497.77 383.7C495.211 379.234 492.95 374.604 491 369.84C493 366.97 496.22 366.27 501.09 369.84C505 372.59 510.4 382.1 512 387.41Z" fill="#3F3D56"/>
<path d="M568.529 229.41C564.459 231.56 561.939 231.66 559.929 231.23C557.919 230.8 553.929 232.8 553.929 232.8C518.679 244.86 517.289 250.55 517.289 250.55L558.099 236.14C565.949 232.7 566.099 233.91 566.099 233.91C572.099 239.55 579.739 235.73 579.739 235.73C579.739 235.73 590.309 230.73 587.199 225.92C584.089 221.11 572.609 227.3 568.529 229.41ZM585.529 228.51C585.529 228.51 582.529 236.51 571.739 235.21C571.739 235.21 566.439 234.43 568.679 230.48C568.679 230.48 579.679 225.86 582.589 226.19C585.499 226.52 585.499 228.55 585.499 228.55L585.529 228.51Z" fill="#E8E8F0"/>
<path opacity="0.1" d="M568.529 229.41C564.459 231.56 561.939 231.66 559.929 231.23C557.919 230.8 553.929 232.8 553.929 232.8C518.679 244.86 517.289 250.55 517.289 250.55L558.099 236.14C565.949 232.7 566.099 233.91 566.099 233.91C572.099 239.55 579.739 235.73 579.739 235.73C579.739 235.73 590.309 230.73 587.199 225.92C584.089 221.11 572.609 227.3 568.529 229.41ZM585.529 228.51C585.529 228.51 582.529 236.51 571.739 235.21C571.739 235.21 566.439 234.43 568.679 230.48C568.679 230.48 579.679 225.86 582.589 226.19C585.499 226.52 585.499 228.55 585.499 228.55L585.529 228.51Z" fill="black"/>
<path d="M570.77 207.109C564.67 207.309 563.4 211.869 563.4 211.869C562.179 213.327 561.463 215.141 561.36 217.04C561.257 218.938 561.773 220.819 562.83 222.399L552 233.169C549.948 233.961 548.184 235.356 546.94 237.169C546.94 237.169 523.16 258.17 523.51 260.08C523.51 260.08 527.39 262.079 552 239.649L558.46 233.929C558.46 233.929 559.89 223.239 569.98 221.209C569.98 221.209 570.98 221.649 571.51 219.269C572.075 218.128 572.829 217.09 573.74 216.199C575.08 214.959 576.87 206.899 570.77 207.109ZM572.48 214.339C572.48 214.339 569.21 222.779 564.55 220.339C559.89 217.899 564.42 212.269 564.42 212.269C572.5 204.409 572.48 214.339 572.48 214.339Z" fill="#E8E8F0"/>
<path opacity="0.1" d="M552.21 237.369C552.922 237.369 553.5 236.792 553.5 236.079C553.5 235.367 552.922 234.789 552.21 234.789C551.498 234.789 550.92 235.367 550.92 236.079C550.92 236.792 551.498 237.369 552.21 237.369Z" fill="black"/>
<path d="M665.06 195.289C661.296 193.306 657.388 191.608 653.37 190.209C648.029 188.694 642.541 187.755 637 187.409C619.494 185.742 601.934 184.775 584.32 184.509C581.21 184.509 578.03 184.439 575.08 185.509C572.445 186.52 570.058 188.085 568.08 190.099C564.654 193.374 561.932 197.315 560.08 201.679C559.486 202.772 559.308 204.044 559.58 205.259C559.98 206.419 561.58 207.189 562.49 206.369C560.162 208.245 558.452 210.778 557.582 213.638C556.712 216.498 556.722 219.554 557.61 222.409C556.222 223.135 555.045 224.206 554.192 225.52C553.339 226.834 552.839 228.345 552.74 229.909C560.011 231.255 567.494 230.892 574.6 228.849C572.48 228.309 570.29 230.299 570.16 232.479C570.174 233.574 570.491 234.644 571.075 235.57C571.659 236.497 572.488 237.244 573.47 237.729C575.454 238.667 577.639 239.1 579.83 238.989C588.3 238.989 596.54 236.119 604.99 235.749C611.45 235.459 618.11 236.629 624.28 234.749C631.44 232.529 637.83 226.239 645.21 227.549C651.1 228.599 654.94 234.069 658.78 238.649C664.92 245.959 672.51 251.879 680.04 257.749C685.84 262.269 691.9 266.909 699.09 268.439C701.242 269.025 703.524 268.917 705.61 268.129C707.354 267.196 708.817 265.815 709.85 264.129C717.6 253.129 717.61 239.279 717.16 226.389C716.93 219.799 715.49 218.909 709.39 216.179C702.31 212.999 695.257 209.742 688.23 206.409C680.47 202.782 672.747 199.075 665.06 195.289Z" fill="#FBBEBE"/>
<path d="M746.11 219.969C744.918 220.682 743.658 221.275 742.35 221.739C740.16 222.259 737.93 221.329 735.8 220.609C726.8 217.609 716.8 218.319 708.1 214.609C710.953 230.985 707.218 247.825 697.71 261.459C695.91 264.019 693.54 266.639 690.42 266.839C691.81 271.109 696.09 273.689 700.15 275.609C706.634 278.678 713.416 281.071 720.39 282.749C722.39 283.219 724.83 283.449 725.99 281.749C726.69 280.749 726.99 279.039 728.22 279.099C730.1 281.099 729.48 285.199 732.08 286.099C732.89 286.306 733.74 286.306 734.55 286.099L740.35 285.099C742.09 284.949 743.766 284.372 745.23 283.419C746.147 282.623 746.904 281.659 747.46 280.579C753.96 269.509 756.46 256.699 757.46 244.049C757.95 237.769 758.56 231.109 758.13 224.809C757.73 219.409 750.81 217.779 746.11 219.969Z" fill="#E8E8F0"/>
<path opacity="0.1" d="M746.11 219.969C744.918 220.682 743.658 221.275 742.35 221.739C740.16 222.259 737.93 221.329 735.8 220.609C726.8 217.609 716.8 218.319 708.1 214.609C710.953 230.985 707.218 247.825 697.71 261.459C695.91 264.019 693.54 266.639 690.42 266.839C691.81 271.109 696.09 273.689 700.15 275.609C706.634 278.678 713.416 281.071 720.39 282.749C722.39 283.219 724.83 283.449 725.99 281.749C726.69 280.749 726.99 279.039 728.22 279.099C730.1 281.099 729.48 285.199 732.08 286.099C732.89 286.306 733.74 286.306 734.55 286.099L740.35 285.099C742.09 284.949 743.766 284.372 745.23 283.419C746.147 282.623 746.904 281.659 747.46 280.579C753.96 269.509 756.46 256.699 757.46 244.049C757.95 237.769 758.56 231.109 758.13 224.809C757.73 219.409 750.81 217.779 746.11 219.969Z" fill="black"/>
<path d="M410.879 544.341C408.029 540.681 405.099 536.801 400.879 534.871C398.448 533.89 395.889 533.264 393.279 533.011C379.209 531.011 365.109 528.931 350.909 528.541C346.269 528.411 341.289 528.541 337.509 531.251C333.179 534.341 331.509 540.031 331.269 545.341C331.011 551.664 332.267 557.957 334.931 563.697C337.596 569.437 341.593 574.458 346.589 578.341C355.089 584.821 365.829 587.531 376.309 589.671C381.819 590.801 387.359 591.811 392.919 592.671C398.479 593.531 404.139 594.211 409.509 595.931C420.989 599.611 431.119 607.931 443.159 608.621C443.725 608.708 444.304 608.61 444.809 608.341C445.338 607.914 445.693 607.31 445.809 606.641C448.459 597.291 457.649 574.901 445.809 568.361C439.619 564.951 432.749 564.801 426.689 560.471C420.629 556.141 415.479 550.251 410.879 544.341Z" fill="#BE6F72"/>
<path d="M309.79 606.412C302 599.632 291.25 596.042 285.59 587.412C283.1 583.612 281.84 579.152 280.59 574.772L276.91 561.552C276.627 560.74 276.498 559.881 276.53 559.022C276.81 556.262 280.06 554.952 282.8 554.522C296.8 552.342 311.38 557.982 321.86 567.522C332.34 577.062 339.07 590.222 343.02 603.862C343.298 604.556 343.34 605.322 343.14 606.042C342.798 606.682 342.258 607.194 341.6 607.502C336.54 610.502 329.74 614.872 323.83 615.792C317.92 616.712 314 610.032 309.79 606.412Z" fill="#BE6F72"/>
<path d="M651.569 549.412L692.569 565.822C696.459 567.377 699.661 570.279 701.59 573.998C703.519 577.717 704.048 582.006 703.079 586.082L672.569 714.412H596.289L609.569 568.412C609.569 568.412 638.569 544.412 651.569 549.412Z" fill="#3F3D56"/>
<path d="M691.17 534.011C690.41 535.671 689.29 537.311 689.46 539.121C689.56 540.201 690.12 541.221 690.04 542.291C689.88 544.391 687.45 545.561 685.35 545.581C683.25 545.601 681.14 544.921 679.07 545.281C675.67 545.861 673.37 548.991 670.43 550.801C666.33 553.321 661.21 553.171 656.43 553.601C646.43 554.501 636.97 558.251 627.92 562.521C621.77 565.421 615.24 569.141 612.92 575.521C609.59 584.521 616.05 594.001 617.48 603.521C617.863 606.726 617.957 609.96 617.76 613.181C616.71 646.801 614.9 680.811 612.98 714.391L246.42 714.821L264.47 683.191C282.07 652.341 300.14 620.911 326.69 597.321C330.628 593.766 335.053 590.79 339.83 588.481L361.12 607.481C362.824 609.177 364.802 610.573 366.97 611.611C370.97 613.241 375.45 612.311 379.74 612.451C387.99 612.721 395.53 616.931 402.69 621.041C407.942 623.892 412.993 627.096 417.81 630.631C420.63 632.791 424.7 634.141 427.64 636.131L426.95 600.231C426.88 596.991 426.83 593.671 427.8 590.581C429.68 584.581 435.05 580.341 437.63 574.631C438.8 572.061 439.37 569.261 440.35 566.631C441.735 563.251 443.457 560.018 445.49 556.981L458.76 535.661C462.04 530.401 465.31 525.141 468.87 520.071C484.44 497.861 505.4 480.071 525.79 462.221C525.316 457.134 526.491 452.03 529.14 447.661C530.185 446.207 531.051 444.632 531.72 442.971C532.152 441.002 532.277 438.979 532.09 436.971C532.09 436.461 532.09 435.971 532.09 435.431C532.311 432.161 533.678 429.074 535.95 426.711C538.29 424.281 541.42 422.801 544.5 421.421C560.439 414.293 577.012 408.675 594 404.641C596.71 404.001 599.58 403.401 602.25 404.211C603.06 406.821 605.82 407.741 608.58 408.401L610.35 408.811C615.037 409.824 619.409 411.958 623.09 415.031C626.96 418.411 629.62 422.931 632.21 427.381C651.68 460.811 660.65 504.671 690.77 528.961C692.23 530.111 691.93 532.411 691.17 534.011Z" fill="#01A4FF"/>
<path opacity="0.1" d="M814 123.408C803.46 146.578 782.69 169.408 755.57 169.408C753.356 169.41 751.143 169.3 748.94 169.078C747.995 167.836 746.945 166.679 745.8 165.618C741.25 161.398 734.8 160.308 730.33 156.618C733.05 151.838 739.09 147.498 743.2 143.848C747.64 139.922 752.247 136.198 757.02 132.678C766.561 125.633 776.719 119.464 787.37 114.248C794.13 110.938 801.19 107.978 808.65 106.968C809.59 106.757 810.572 106.844 811.46 107.218C812.62 107.858 813.04 109.298 813.32 110.588C814.71 116.988 812.84 116.908 814 123.408Z" fill="black"/>
<path d="M755.57 167.398C792.573 167.398 822.57 137.402 822.57 100.398C822.57 63.3954 792.573 33.3984 755.57 33.3984C718.567 33.3984 688.57 63.3954 688.57 100.398C688.57 137.402 718.567 167.398 755.57 167.398Z" fill="#FBBEBE"/>
<path d="M895.099 323.231C894.009 331.331 892.106 339.301 889.419 347.021C888.419 349.831 887.189 352.571 885.919 355.271C878.469 371.061 874.379 388.131 872.429 405.491C872.28 406.857 872.029 408.211 871.679 409.541C870.209 415.141 867.109 420.141 864.739 425.411C862.323 431.103 860.317 436.961 858.739 442.941C858.169 444.441 857.977 446.059 858.179 447.651C858.549 449.341 859.769 450.651 860.629 452.181C865.069 459.831 859.939 469.181 858.209 477.841C857.619 480.841 857.359 484.101 855.409 486.441C853.749 488.441 851.169 489.361 848.719 490.201C813.798 502.073 778.056 511.377 741.779 518.041C736.369 519.041 730.779 519.971 725.409 518.971C720.039 517.971 714.689 514.651 712.849 509.471C711.789 506.471 711.969 503.211 712.059 500.031C712.259 493.351 712.059 486.631 711.699 479.901C710.539 457.751 707.909 435.521 713.699 414.301C715.429 408.041 717.869 402.001 719.829 395.811C723.659 383.741 724.649 371.261 725.609 358.741C726.399 348.421 727.169 338.061 729.479 327.881C731.199 320.291 730.059 312.401 729.959 304.621C729.761 286.817 734.994 269.375 744.959 254.621C746.689 252.071 748.589 249.551 749.499 246.621C750.779 242.421 749.899 237.911 749.319 233.551C747.859 222.434 748.449 211.145 751.059 200.241C751.88 196.161 753.442 192.266 755.669 188.751C758.159 185.121 761.729 182.381 765.299 179.801C786.025 164.859 808.894 153.143 833.129 145.051C835.359 150.691 837.499 157.281 839.209 163.051C839.439 163.831 839.599 164.821 838.959 165.321C838.319 165.821 837.659 165.551 836.959 165.571C836.237 165.649 835.555 165.944 835.004 166.417C834.452 166.89 834.057 167.519 833.869 168.221C833.52 169.637 833.653 171.129 834.249 172.461C835.609 175.961 838.539 178.571 841.359 181.041L855.539 193.411C857.237 194.999 859.089 196.413 861.069 197.631C862.849 198.631 864.789 199.341 866.619 200.261C873.959 203.971 879.029 211.201 881.859 218.921C884.689 226.641 883.409 235.921 887.099 243.251C899.359 267.551 899.259 296.301 895.099 323.231Z" fill="#E8E8F0"/>
<path d="M885.781 577.488C890.089 594.855 889.982 613.023 885.471 630.338C884.661 633.428 883.711 636.628 884.351 639.758C884.721 641.538 885.591 643.208 885.791 645.018C885.878 646.669 885.699 648.324 885.261 649.918C880.821 670.918 882.411 692.738 884.201 714.168C883.441 714.168 883.201 714.518 882.401 714.518H863.131C862.791 708.888 855.791 704.668 852.371 700.178C849.062 695.777 846.774 690.695 845.673 685.301C844.571 679.906 844.683 674.334 846.001 668.988C849.001 656.988 857.841 647.398 862.371 635.928C867.371 623.308 866.941 609.018 872.251 596.538C875.301 589.328 881.001 583.698 885.781 577.488Z" fill="#3F3D56"/>
<path opacity="0.1" d="M885.781 577.488C890.089 594.855 889.982 613.023 885.471 630.338C884.661 633.428 883.711 636.628 884.351 639.758C884.721 641.538 885.591 643.208 885.791 645.018C885.878 646.669 885.699 648.324 885.261 649.918C880.821 670.918 882.411 692.738 884.201 714.168C883.441 714.168 883.201 714.518 882.401 714.518H863.131C862.791 708.888 855.791 704.668 852.371 700.178C849.062 695.777 846.774 690.695 845.673 685.301C844.571 679.906 844.683 674.334 846.001 668.988C849.001 656.988 857.841 647.398 862.371 635.928C867.371 623.308 866.941 609.018 872.251 596.538C875.301 589.328 881.001 583.698 885.781 577.488Z" fill="black"/>
<path d="M845.34 481.24C828.96 478.62 813.09 486.87 797.27 491.88C773.1 499.53 746.49 500 724.16 512.01C722.165 512.97 720.357 514.277 718.82 515.87C717.007 518.114 715.867 520.825 715.53 523.69C714.532 530.024 715.758 536.508 719 542.04C720.39 544.4 722.14 546.57 723.22 549.1C725.78 555.1 724.07 562.02 723.63 568.58C722.63 583.23 728.31 597.49 729.45 612.13C730.13 620.76 729.24 629.58 731.27 638C732.54 643.28 734.93 648.26 735.92 653.6C736.91 658.94 736.48 664.16 736.81 669.44C737.74 684.57 744.63 699.27 742.95 714.34L872.95 714.77C868.13 698 864.12 680.66 868.49 663.77C870.006 658.429 871.891 653.2 874.13 648.12C881.4 630.55 888.87 612.93 892.88 594.35C896.89 575.77 897.25 555.93 890.46 538.17C882.9 518.37 866.83 501.9 863.33 481C857.33 480.2 851.35 482.2 845.34 481.24Z" fill="#3F3D56"/>
<path d="M708.909 67.7197C707.649 65.0797 704.079 63.3397 701.679 65.0097C699.279 66.6797 699.589 70.4097 698.999 73.4097C697.859 79.3097 691.999 83.3297 685.999 84.2697C683.189 84.7197 680.059 84.5397 677.879 82.7197C676.475 81.3749 675.442 79.6906 674.879 77.8297C668.879 61.8297 672.529 43.1497 682.349 29.1897C684.433 26.0615 687.017 23.2979 689.999 21.0097C698.269 15.0097 709.329 15.0097 719.559 15.3297C721.637 15.5549 723.738 15.3124 725.709 14.6197C727.211 13.829 728.587 12.8178 729.789 11.6197C739.479 3.09971 752.869 -0.480286 765.789 0.0897135C778.709 0.659713 791.139 5.08971 802.619 10.9797C808.109 13.7897 813.489 16.9797 817.789 21.4197C828.119 32.0497 830.639 47.7997 832.669 62.4797C834.849 78.3197 837.019 94.5997 833.349 110.17C831.269 118.99 827.349 127.61 827.809 136.66C819.503 139.032 811.061 140.899 802.529 142.25C798.529 142.88 793.909 143.25 790.979 140.42C789.74 139.091 788.835 137.487 788.339 135.74C785.169 126.37 786.229 115.67 781.439 107.01C779.436 103.479 776.574 100.511 773.118 98.3816C769.662 96.2523 765.724 95.0306 761.669 94.8297C758.529 94.7197 754.959 95.4897 753.349 98.1797C752.732 99.4992 752.256 100.88 751.929 102.3C749.709 108.99 740.619 112.3 734.629 108.57C731.629 106.69 729.579 103.57 726.869 101.23C723.429 98.2797 719.019 96.7597 715.159 94.3797C702.299 86.4097 713.889 78.1697 708.909 67.7197Z" fill="#3F3D56"/>
<path d="M608.621 408.411C603.151 410.161 598.171 413.331 592.851 415.561C583.481 419.471 573.181 420.381 563.351 422.881C553.907 425.414 544.804 429.081 536.241 433.801C535.611 434.141 533.631 435.801 532.051 436.941C532.051 436.431 532.051 435.941 532.051 435.401C532.272 432.131 533.639 429.044 535.911 426.681C538.251 424.251 541.381 422.771 544.461 421.391C560.414 414.271 577 408.663 594.001 404.641C596.711 404.001 599.581 403.401 602.251 404.211C603.101 406.821 605.861 407.741 608.621 408.411Z" fill="#3F3D56"/>
<path opacity="0.1" d="M466.85 664.859C477.61 676.859 487.26 689.959 499.78 700.079C485.33 680.889 464.6 668.079 445.86 653.609C442.06 650.669 434.46 646.499 432.16 642.249C428.53 635.589 436.55 640.319 439.88 642.129C450.28 647.779 459 656.119 466.85 664.859Z" fill="black"/>
<path opacity="0.1" d="M853.999 314.582C853.489 318.902 851.879 323.002 850.249 327.022C846.249 337.022 841.959 346.922 835.919 355.792C831.759 361.902 826.809 367.422 822.469 373.392C818.014 379.728 813.928 386.316 810.229 393.122C803.409 405.202 796.763 417.382 790.289 429.662C787.199 435.542 784.129 441.472 780.139 446.782C777.339 450.366 774.334 453.785 771.139 457.022C764.139 464.402 756.949 471.222 750.689 479.222C747.589 483.222 742.419 484.762 737.589 486.122C735.974 486.659 734.29 486.962 732.589 487.022C730.877 486.902 729.191 486.528 727.589 485.912C722.195 484.266 716.917 482.261 711.789 479.912C710.629 457.762 707.999 435.532 713.789 414.312C715.519 408.052 717.959 402.012 719.919 395.822C723.749 383.752 724.739 371.272 725.699 358.752C726.889 356.242 728.159 353.752 729.389 351.332C737.729 334.852 744.759 316.702 742.589 298.332C742.037 295.02 741.653 291.682 741.439 288.332C741.46 284.224 742.152 280.146 743.489 276.262C746.482 267.087 751.429 258.67 757.99 251.591C764.55 244.513 772.568 238.942 781.489 235.262C784.307 233.945 787.379 233.262 790.489 233.262C794.489 233.472 798.319 235.552 802.219 234.792C815.429 240.602 826.119 250.522 834.109 262.542C842.099 274.562 842.539 290.622 851.229 302.142C853.799 305.642 854.499 310.272 853.999 314.582Z" fill="black"/>
<path d="M564.86 260.308L564.44 259.398L548.1 266.938L545.37 268.198L542.65 269.448L565.69 319.398L568.41 318.138L571.14 316.878L587.48 309.338L587.06 308.438L570.72 315.978L570.3 315.068L586.64 307.528L586.22 306.618L569.88 314.158L569.46 313.248L585.8 305.708L585.39 304.798L569.04 312.338L568.62 311.438L584.97 303.898L584.55 302.988L568.2 310.528L567.78 309.618L584.13 302.078L583.71 301.168L567.37 308.708L566.95 307.798L583.29 300.258L582.87 299.358L566.53 306.898L566.11 305.988L582.45 298.448L582.03 297.538L565.69 305.078L565.27 304.168L581.62 296.628L581.2 295.718L564.85 303.258L564.43 302.358L580.78 294.808L580.36 293.908L564.01 301.448L563.6 300.538L579.94 292.998L579.52 292.088L563.18 299.628L562.76 298.718L579.1 291.178L578.68 290.268L562.34 297.808L561.92 296.908L578.26 289.368L577.85 288.458L561.5 295.998L561.08 295.088L577.43 287.548L577.01 286.638L560.66 294.178L560.25 293.268L576.59 285.738L576.17 284.828L559.83 292.368L559.41 291.458L575.75 283.918L575.33 283.008L558.99 290.548L558.57 289.638L574.91 282.098L574.5 281.188L558.15 288.738L557.73 287.828L574.08 280.288L573.66 279.378L557.31 286.918L556.89 286.008L573.24 278.468L572.82 277.558L556.48 285.098L556.06 284.188L572.4 276.648L571.98 275.748L555.64 283.288L555.22 282.378L571.56 274.838L571.14 273.928L554.8 281.468L554.38 280.558L570.73 273.018L570.31 272.118L553.96 279.648L553.54 278.748L569.89 271.208L569.47 270.298L553.12 277.838L552.71 276.928L569.05 269.388L568.63 268.478L552.29 276.018L551.87 275.108L568.21 267.568L567.79 266.668L551.45 274.208L551.03 273.298L567.37 265.758L566.96 264.848L550.61 272.388L550.19 271.478L566.54 263.938L566.12 263.028L549.77 270.568L549.35 269.668L565.7 262.128L565.28 261.218L548.93 268.758L548.52 267.848L564.86 260.308Z" fill="black"/>
<path opacity="0.1" d="M616.16 370.168C614.05 373.738 610.82 376.838 606.81 377.888C601.81 379.178 595.99 376.678 593.81 371.998C592.47 369.098 592.53 365.778 592.46 362.588C592.349 356.341 591.68 350.116 590.46 343.988C589.84 340.918 589.01 337.728 586.92 335.408C584.22 332.408 579.92 331.408 575.92 331.338C571.24 331.278 566.11 332.548 563.38 336.338C561.19 339.398 560.81 343.698 557.9 346.088C556.606 347.081 555.069 347.706 553.45 347.898C550.149 348.31 546.805 347.602 543.953 345.889C541.102 344.176 538.907 341.556 537.72 338.448C536.8 335.808 536.35 332.528 533.85 331.288C532.55 330.638 531 330.758 529.61 330.338C525.35 329.048 524.23 323.648 523.84 319.218C523.39 314.028 525.12 303.778 518.67 303.428C511.77 303.048 503.76 307.058 497.37 309.188C493.27 310.838 488.45 312.738 484.68 310.428C481.91 308.718 480.77 305.168 480.94 301.918C481.11 298.668 482.35 295.588 483.33 292.488C485.01 287.248 486.02 281.808 487.56 276.488C486.836 277.993 486.192 279.535 485.63 281.108C483.41 287.418 482.37 294.108 480.33 300.448C479.33 303.548 478.11 306.628 477.94 309.878C477.77 313.128 478.94 316.678 481.68 318.388C485.45 320.698 490.27 318.798 494.37 317.148C500.76 315.018 508.77 311.008 515.67 311.388C522.12 311.738 520.39 321.988 520.84 327.178C521.23 331.608 522.35 337.008 526.61 338.298C528 338.718 529.55 338.598 530.85 339.248C533.35 340.488 533.85 343.768 534.72 346.408C535.907 349.516 538.102 352.136 540.953 353.849C543.805 355.562 547.149 356.27 550.45 355.858C552.069 355.666 553.606 355.041 554.9 354.048C557.81 351.658 558.19 347.358 560.38 344.298C563.11 340.488 568.24 339.218 572.92 339.298C576.92 339.358 581.27 340.358 583.92 343.368C586.01 345.688 586.84 348.878 587.46 351.948C588.68 358.076 589.349 364.301 589.46 370.548C589.53 373.738 589.46 377.058 590.81 379.958C592.98 384.638 598.81 387.138 603.81 385.848C607.81 384.798 611.05 381.698 613.16 378.128C614.766 375.213 616.002 372.109 616.84 368.888C616.62 369.348 616.4 369.758 616.16 370.168Z" fill="black"/>
<path d="M667.601 363.528C659.601 355.848 652.371 347.348 645.191 338.868C638.311 330.758 631.411 322.608 625.871 313.538C622.441 307.928 619.381 301.808 614.111 297.878C610.111 294.878 605.221 293.478 600.801 291.188C597.621 289.538 594.691 287.448 591.551 285.738C584.702 282.036 576.993 280.217 569.211 280.468C565.981 280.578 562.311 281.328 560.651 284.108C560.081 285.058 559.811 286.168 559.231 287.108C557.441 290.108 553.131 290.958 551.661 294.108C549.181 299.408 556.661 304.278 557.131 310.108C557.351 313.028 555.741 315.748 555.271 318.638C554.471 323.638 557.061 328.408 559.561 332.768C564.911 342.108 571.421 352.338 581.931 354.688C585.651 355.518 589.581 355.248 593.211 356.428C596.137 357.537 598.844 359.151 601.211 361.198C611.085 368.981 619.788 378.145 627.051 388.408C630.431 393.178 633.491 398.158 636.901 402.898C647.754 417.915 661.996 430.16 678.471 438.638L690.741 399.638C692.631 393.638 694.121 385.408 688.741 380.728C682.001 374.658 674.231 369.868 667.601 363.528Z" fill="#FBBEBE"/>
<path d="M801.17 229.831C797.27 230.581 793.4 228.511 789.44 228.301C786.33 228.299 783.258 228.982 780.44 230.301C771.52 233.983 763.504 239.555 756.944 246.633C750.384 253.711 745.436 262.127 742.44 271.301C741.116 275.202 740.434 279.291 740.42 283.411C740.48 286.761 741.18 290.061 741.57 293.411C743.74 311.751 736.71 329.911 728.38 346.411C723.77 355.521 718.57 365.131 719.66 375.281C719.8 376.641 720.02 378.171 719.19 379.281C718.19 380.601 716.03 380.671 715.1 382.061C714.17 383.451 715.02 385.551 714.28 387.121C713.28 389.341 710.02 389.071 707.69 388.281C701.304 386.12 695.388 382.759 690.26 378.381C681.95 383.231 673.06 389.011 670.33 398.231C669.689 400.583 669.244 402.985 669 405.411L664.71 441.211C664.14 445.951 663.86 451.511 667.44 454.671C673.61 460.131 684.6 453.061 691.2 458.001C692.89 459.261 693.99 461.141 695.2 462.851C702.41 472.741 714.82 477.091 726.46 480.851C728.064 481.46 729.749 481.83 731.46 481.951C733.163 481.903 734.848 481.6 736.46 481.051C741.3 479.691 746.46 478.111 749.56 474.161C755.83 466.161 763.02 459.341 770.02 451.961C773.21 448.719 776.215 445.3 779.02 441.721C783.02 436.401 786.08 430.471 789.17 424.591C795.63 412.311 802.27 400.131 809.09 388.051C812.827 381.273 816.95 374.715 821.44 368.411C825.79 362.411 830.73 356.911 834.89 350.811C840.89 341.931 845.2 331.991 849.22 322.041C850.85 318.041 852.46 313.911 852.98 309.601C853.5 305.291 852.8 300.661 850.18 297.191C841.49 285.661 841.06 269.611 833.07 257.591C825.08 245.571 814.39 235.631 801.17 229.831Z" fill="#E8E8F0"/>
<path d="M565.13 264.412C564.897 264.56 564.699 264.758 564.55 264.991C564.402 265.225 564.306 265.488 564.27 265.762C564.27 266.262 564.68 266.652 564.9 267.102C565.51 268.382 564.53 269.862 563.41 270.742C562.29 271.622 560.93 272.302 560.32 273.592C560.227 273.763 560.185 273.957 560.2 274.152C560.268 274.415 560.423 274.648 560.64 274.812C561.299 275.569 562.154 276.129 563.11 276.432C564.64 276.752 566.11 275.742 567.41 274.912C568.821 274.02 570.323 273.282 571.89 272.712C572.376 272.568 572.833 272.342 573.24 272.042C573.74 271.543 574.048 270.885 574.11 270.182C574.45 267.672 573.11 265.262 571.58 263.182C569.74 260.732 566.7 263.062 565.13 264.412Z" fill="#3F3D56"/>
<path d="M411.71 560.763L307.909 507.782C307.151 507.395 306.224 507.696 305.837 508.454L279.383 560.283C278.996 561.04 279.297 561.968 280.055 562.355L383.856 615.335C384.613 615.722 385.541 615.421 385.927 614.664L412.381 562.834C412.768 562.077 412.467 561.149 411.71 560.763Z" fill="#3F3D56"/>
<path d="M402.153 562.093L312.604 516.387L289.882 560.903L379.432 606.61L402.153 562.093Z" fill="#E8E8F0"/>
<path d="M299.273 537.654C299.546 537.118 299.11 536.348 298.299 535.933C297.487 535.519 296.607 535.618 296.333 536.154C296.06 536.69 296.496 537.461 297.308 537.875C298.119 538.289 298.999 538.191 299.273 537.654Z" fill="#E6E8EC"/>
<path d="M397.2 587.769C397.65 586.889 396.929 585.621 395.591 584.939C394.253 584.256 392.804 584.416 392.355 585.296C391.905 586.177 392.626 587.444 393.964 588.127C395.302 588.81 396.751 588.65 397.2 587.769Z" fill="#E6E8EC"/>
<g opacity="0.1">
<path d="M833.33 103.133C831.25 111.953 827.33 120.573 827.79 129.623C819.484 131.995 811.042 133.861 802.51 135.213C798.51 135.843 793.89 136.213 790.96 133.383C789.721 132.054 788.816 130.45 788.32 128.702C785.15 119.332 786.21 108.633 781.42 99.9725C779.417 96.4416 776.555 93.4737 773.099 91.3444C769.642 89.2151 765.704 87.9934 761.65 87.7925C758.51 87.6825 754.94 88.4525 753.33 91.1425C752.713 92.462 752.237 93.843 751.91 95.2625C749.69 101.953 740.6 105.263 734.61 101.533C731.61 99.6525 729.56 96.5325 726.85 94.1925C723.41 91.2425 719 89.7225 715.14 87.3425C711.66 85.2025 709.99 83.0425 709.28 80.8125C708.4 85.6225 708.15 90.0425 715.14 94.3425C719 96.7225 723.41 98.2425 726.85 101.193C729.56 103.513 731.57 106.653 734.61 108.533C740.61 112.243 749.69 108.953 751.91 102.263C752.237 100.843 752.713 99.462 753.33 98.1425C754.94 95.4525 758.51 94.6825 761.65 94.7925C765.704 94.9934 769.642 96.2151 773.099 98.3444C776.555 100.474 779.417 103.442 781.42 106.973C786.21 115.633 785.15 126.332 788.32 135.702C788.823 137.464 789.742 139.08 791 140.413C793.93 143.213 798.56 142.873 802.55 142.243C811.082 140.891 819.524 139.025 827.83 136.653C827.34 127.603 831.29 118.983 833.37 110.163C834.972 102.945 835.614 95.5479 835.28 88.1625C835.121 93.2042 834.468 98.2182 833.33 103.133Z" fill="black"/>
<path d="M709.88 70.5218C710.612 67.2328 710.261 63.7953 708.88 60.7218C707.62 58.0818 704.05 56.3418 701.65 58.0118C699.25 59.6818 699.59 63.4118 699 66.4118C697.86 72.3118 692 76.3318 686 77.2718C683.19 77.7218 680.06 77.5418 677.88 75.7218C676.476 74.377 675.443 72.6928 674.88 70.8318C673.344 66.6728 672.411 62.3152 672.11 57.8918C671.602 64.6599 672.547 71.4584 674.88 77.8318C675.443 79.6928 676.476 81.377 677.88 82.7218C680.06 84.5418 683.19 84.7218 686 84.2718C691.93 83.3318 697.82 79.2718 699 73.4118C699.57 70.4118 699.18 66.7818 701.66 65.0618C704.14 63.3418 707.66 65.1318 708.89 67.7718C709.318 68.65 709.65 69.5721 709.88 70.5218Z" fill="black"/>
</g>
</g>
<defs>
<clipPath id="clip0_112_134">
<rect width="1144" height="714.9" fill="white"/>
</clipPath>
</defs>
</svg>
