<svg width="864" height="507" viewBox="0 0 864 507" fill="none" xmlns="http://www.w3.org/2000/svg">
<g clip-path="url(#clip0_112_132)">
<path d="M452.307 191.353C458.045 184.084 466.447 181.153 471.072 184.806C475.698 188.459 474.795 197.311 469.053 204.582C466.8 207.517 463.876 209.871 460.526 211.445L435.824 241.937L421.762 230.04L447.607 201.243C448.361 197.619 449.973 194.227 452.307 191.353Z" fill="#FFB6B6"/>
<path d="M361.276 178.309L397.319 239.562L440.952 209.421L458.504 216.422C458.504 216.422 427.496 283.91 400.76 279.521C374.024 275.131 320.825 214.74 326.931 193.651C333.038 172.562 361.276 178.309 361.276 178.309Z" fill="#01A4FF"/>
<path d="M469.923 159.431L449.783 165.379L463.661 212.372L483.801 206.425L469.923 159.431Z" fill="#01A4FF"/>
<path d="M356.752 179.831L357.183 151.108L339.47 140.066L320.209 163.626L356.752 179.831Z" fill="#FFB6B6"/>
<path opacity="0.1" d="M356.751 179.831L357.897 151.824L339.469 140.066L345.73 174.727L356.751 179.831Z" fill="black"/>
<path d="M347.265 153.972C364.663 153.972 378.767 139.868 378.767 122.47C378.767 105.073 364.663 90.9688 347.265 90.9688C329.867 90.9688 315.764 105.073 315.764 122.47C315.764 139.868 329.867 153.972 347.265 153.972Z" fill="#FFB6B6"/>
<path d="M399.77 369.766L394.22 407.496L391.43 426.496L379.81 505.556C365.15 505.096 350.68 504.436 336.43 503.606L338.5 455.466L339.75 426.496L340.57 407.496L341.08 395.536L333.61 367.006C333.61 367.006 331.15 362.436 328.65 356.346C328.21 355.266 327.76 354.136 327.33 352.976C324.23 344.686 321.77 334.816 324.86 329.656C325.01 329.416 325.16 329.186 325.33 328.966C326.73 327.156 330.36 325.806 335.29 324.806C338.3 324.186 341.81 323.706 345.59 323.336C357.03 322.206 371 322.036 381.69 322.146C391.36 322.226 398.34 322.526 398.34 322.526L398.44 325.716L398.45 326.026L398.52 328.446L398.69 334.226L399.12 348.506L399.56 363.016L399.77 369.766Z" fill="#2F2E41"/>
<path d="M399.561 363.016L383.991 394.246L374.141 407.496L360.031 426.496L338.501 455.466L304.361 501.416C287.941 500.136 271.841 498.606 256.131 496.866L297.921 426.496L309.201 407.496L320.091 389.166L327.011 360.496C327.011 360.496 327.011 358.966 327.121 356.516C327.171 355.486 327.241 354.286 327.331 352.976C327.941 344.226 329.791 330.276 335.291 324.806C336.031 324.056 336.841 323.476 337.721 323.076C339.371 322.336 342.121 322.516 345.591 323.336C354.171 325.386 367.131 331.426 378.771 337.426C386.821 341.586 394.231 345.716 399.121 348.506L399.561 363.016Z" fill="#2F2E41"/>
<path d="M324.259 157.551L360.046 174.728C360.046 174.728 397.98 287.099 397.98 292.825C397.98 298.551 408.716 302.129 402.274 308.571C395.833 315.013 414.264 320.468 404.332 325.613C394.401 330.759 332.448 358.903 325.559 356.365C306.559 349.365 326.364 323.644 326.364 323.644C326.364 323.644 312.092 312.15 314.239 306.424C316.386 300.698 301.355 191.19 301.355 191.19L324.259 157.551Z" fill="#01A4FF"/>
<path d="M349.917 129.793L357.823 134.217C357.823 134.217 352.974 119.876 356.513 113.551C360.053 107.226 357.99 102.749 357.99 102.749C357.99 102.749 370.614 106.906 373.938 101.706C377.263 96.5071 378.362 93.8 367.534 89.4023C356.706 85.0046 360.78 88.1145 360.78 88.1145C360.78 88.1145 351.533 84.6016 353.57 86.1566C355.607 87.7116 345.904 83.5285 347.271 85.539C348.638 87.5496 341.187 83.7957 342.553 85.8063C343.92 87.8168 325.291 90.6816 329.123 91.9957C332.956 93.3097 313.416 94.8342 314.003 110.113C314.59 125.391 303.949 129.725 311.801 134.166C319.654 138.606 330.613 157.612 330.613 157.612L339.856 151.33C339.856 151.33 337.078 126.762 349.917 129.793Z" fill="#2F2E41"/>
<path d="M282.808 293.492C291.993 292.303 298.823 286.599 298.065 280.755C297.307 274.91 289.248 271.138 280.061 272.329C276.384 272.755 272.863 274.055 269.792 276.12L230.941 281.652L233.926 299.828L271.909 292.445C275.406 293.659 279.144 294.019 282.808 293.492Z" fill="#A0616A"/>
<path d="M164.036 213.733L174.693 293.061C174.693 293.061 177.624 310.123 204.305 307.61C230.987 305.098 266.051 294.75 266.051 294.75L263.769 276.226L233.968 279.455C233.968 279.455 220.056 276.08 217.295 278.356C214.533 280.632 215.802 283.296 213.07 279.982C210.339 276.668 211.711 274.611 209.319 277.509C206.928 280.407 206.442 285.445 205.01 279.205C203.578 272.966 200.913 274.234 200.913 274.234L199.397 216.125C199.397 216.125 191.392 188.406 176.771 197.673C162.149 206.941 164.036 213.733 164.036 213.733Z" fill="#E6E6E6"/>
<path d="M210.743 150.441H157.967V228.424H210.743V150.441Z" fill="#2F2E41"/>
<path d="M169.814 204.644L171.663 182.309H196.238L201.686 205.973L169.814 204.644Z" fill="#A0616A"/>
<path opacity="0.1" d="M169.814 204.644L171.663 182.309H196.238L201.686 205.973L169.814 204.644Z" fill="black"/>
<path d="M214.334 166.856C216.711 152.211 206.766 138.413 192.122 136.037C177.477 133.661 163.679 143.606 161.303 158.25C158.926 172.894 168.872 186.692 183.516 189.069C198.16 191.445 211.958 181.5 214.334 166.856Z" fill="#A0616A"/>
<path d="M194.596 134.294C194.596 134.294 194.596 123.266 184.356 125.629C174.115 127.992 170.965 131.93 170.965 131.93C170.965 131.93 167.026 138.232 160.724 139.02C154.423 139.808 148.909 157.925 149.697 161.863C150.484 165.802 154.423 176.042 148.909 180.768C143.395 185.494 135.518 192.584 137.881 199.673C140.244 206.763 147.333 224.88 147.333 224.88C147.333 224.88 127.56 227.77 129.176 240.11C129.176 240.11 138.669 232.757 151.272 232.757C163.875 232.757 162.3 209.892 162.3 209.892C162.3 209.892 163.088 195.735 165.451 191.796C167.814 187.858 164.663 165.802 176.479 153.986C188.294 142.171 194.596 134.294 194.596 134.294Z" fill="#2F2E41"/>
<path d="M191.445 131.93C191.445 131.93 206.412 135.081 211.926 150.047C217.44 165.013 214.655 167.798 214.655 167.798C214.655 167.798 215.874 176.81 222.565 179.97C229.255 183.131 223.741 196.522 223.741 196.522C223.741 196.522 225.317 209.913 246.585 214.639C267.853 219.365 219.914 255.608 219.914 255.608C219.914 255.608 223.361 238.502 201.305 237.715C179.249 236.927 205.624 196.522 205.624 196.522L207.987 170.527C207.987 170.527 203.261 140.594 189.082 136.656C174.904 132.717 191.445 131.93 191.445 131.93Z" fill="#2F2E41"/>
<path d="M229.58 370.487L224.14 407.497L221.35 426.497L216.62 458.637L211.83 491.207C206.16 490.387 200.56 489.537 195.03 488.657C185.53 487.147 176.23 485.557 167.13 483.877L168.9 442.547L169.59 426.497L170.41 407.497L170.89 396.247L163.41 367.717C163.41 367.717 147.98 338.987 155.14 329.687C155.47 329.267 155.91 328.867 156.47 328.497C158.29 327.267 161.29 326.287 165.06 325.527C173.97 323.707 187.17 323.047 199.2 322.877C214.64 322.657 228.14 323.247 228.14 323.247L228.22 325.597L228.37 330.697L229.58 370.487Z" fill="#2F2E41"/>
<path d="M229.58 370.487L224.14 407.497L221.35 426.497L216.62 458.637L195.03 488.657C185.53 487.147 176.23 485.557 167.13 483.877C160.44 482.647 153.87 481.367 147.4 480.047L168.9 442.547L178.1 426.497L188.98 407.497L194.21 398.377L198.76 390.437L202.09 375.637L204.65 364.287L205.24 361.667C205.24 361.667 205.18 357.547 205.57 352.017C206.17 343.637 207.82 331.997 212.36 326.527C213.24 325.447 214.24 324.617 215.37 324.087C217.73 322.977 222.39 323.737 228.22 325.597L228.37 330.697L229.58 370.487Z" fill="#2F2E41"/>
<path d="M203.452 204.789L202.796 204.604L170.528 195.484L144.762 230.555L161.939 303.56L155.498 332.905C155.498 332.905 207.746 319.306 228.503 330.758C228.503 330.758 229.934 324.232 228.503 321.054C227.071 317.875 224.924 304.648 227.071 298.736C229.218 292.824 222.777 264.911 222.777 264.911C222.777 264.911 224.924 246.301 215.62 236.997C206.315 227.692 203.452 204.789 203.452 204.789Z" fill="#E6E6E6"/>
<path d="M194.494 399.541C196.808 408.508 203.311 414.583 209.017 413.11C214.724 411.636 217.473 403.173 215.157 394.203C214.281 390.607 212.557 387.273 210.128 384.48L199.845 346.609L182.176 351.814L194.189 388.596C193.416 392.216 193.52 395.969 194.494 399.541Z" fill="#A0616A"/>
<path d="M199.181 237.023C199.181 237.023 189.173 209.978 178.205 211.739C167.236 213.499 157.236 230.499 157.236 230.499L165.165 326.706L186.945 381.607L210.047 372.499L198.047 317.632L199.181 237.023Z" fill="#E6E6E6"/>
<path opacity="0.7" d="M699.551 69.9961V484.626C699.221 484.696 698.891 484.756 698.551 484.806C693.481 485.726 688.341 486.606 683.141 487.466C676.961 488.486 670.691 489.476 664.341 490.426C659.061 491.206 653.731 491.966 648.341 492.696C632.651 494.846 616.521 496.756 600.001 498.416C594.711 498.956 589.371 499.466 584.001 499.946C537.051 504.166 487.151 506.446 435.411 506.446C428.081 506.446 420.801 506.396 413.551 506.306C413.211 506.306 412.881 506.306 412.551 506.296V69.9961H699.551Z" fill="#F2F2F2"/>
<path d="M698.551 206.786V208.016L698.681 207.756C698.671 207.436 698.621 207.116 698.551 206.786ZM412.551 337.426L411.551 336.616V426.496H412.551V506.296C412.881 506.306 413.211 506.306 413.551 506.306V276.806C413.221 276.986 412.891 277.156 412.551 277.326V337.426ZM411.551 68.9961V506.276C411.881 506.286 412.211 506.296 412.551 506.296C412.881 506.306 413.211 506.306 413.551 506.306V70.9961H698.551V484.806C698.891 484.756 699.221 484.696 699.551 484.626C699.881 484.576 700.221 484.516 700.551 484.446V68.9961H411.551Z" fill="#3F3D56"/>
<path d="M437.047 383.5C447.54 383.5 456.047 374.993 456.047 364.5C456.047 354.007 447.54 345.5 437.047 345.5C426.553 345.5 418.047 354.007 418.047 364.5C418.047 374.993 426.553 383.5 437.047 383.5Z" fill="#3F3D56"/>
<path d="M434.587 359.236C441.407 365.501 450.168 367.06 454.155 362.719C458.141 358.377 455.843 349.781 449.019 343.515C446.328 340.974 443.067 339.115 439.51 338.094L410.276 311.914L398.283 325.894L428.376 350.218C429.696 353.677 431.826 356.769 434.587 359.236Z" fill="#FFB6B6"/>
<path d="M350.094 220.33C350.094 220.33 326.982 203.084 318.737 210.529C310.492 217.975 311.352 237.679 311.352 237.679L370.35 314.084L418.495 348.298L432.923 328.086L393.001 288.58L350.094 220.33Z" fill="#01A4FF"/>
<path d="M600 392.496V498.416C594.71 498.956 589.37 499.466 584 499.946V392.496H600Z" fill="#3F3D56"/>
<path d="M16 392.496V440.596C10.41 438.126 5.06995 435.586 0 432.996V392.496H16Z" fill="#3F3D56"/>
<path d="M593.996 407.5H10.9961V426.5H593.996V407.5Z" fill="#01A4FF"/>
<path d="M723.181 126.672C723.181 126.672 712.515 132.927 716.013 139.114C719.511 145.3 724.388 153.726 721.079 156.38C717.771 159.034 712.309 170.735 712.309 170.735C712.309 170.735 688.993 167.478 691.182 185.589C693.371 203.701 704.324 206.17 694.936 214.137C685.548 222.105 704.693 231.634 704.693 231.634C704.693 231.634 717.91 227.515 720.925 214.849C723.941 202.183 718.237 224.534 720.15 226.136C722.063 227.739 729.49 238.302 734.746 224.258C740.001 210.213 734.797 204.768 741.742 196.479C748.686 188.19 753.407 174.784 753.201 172.44C752.994 170.096 761.144 148.711 748.599 140.371C736.054 132.031 723.181 126.672 723.181 126.672Z" fill="#2F2E41"/>
<path d="M632.642 324.176C627.294 330.201 619.851 332.326 616.017 328.922C612.183 325.518 613.411 317.876 618.761 311.85C620.865 309.413 623.522 307.516 626.51 306.317L649.489 281.074L661.105 292.11L637.218 315.823C636.382 318.933 634.812 321.797 632.642 324.176Z" fill="#FFB6B6"/>
<path d="M699.838 205.411C699.838 205.411 713.775 192.608 719.655 196.918C725.534 201.228 726.289 214.149 726.289 214.149L692.876 267.971L644.683 308.591L633.914 296.36L676.384 252.833L699.838 205.411Z" fill="#3F3D56"/>
<path d="M728.081 176.402L720.531 203.236H761.968L748.323 170.172L728.081 176.402Z" fill="#FFB6B6"/>
<path opacity="0.1" d="M728.081 176.402L720.531 203.236H761.968L748.323 170.172L728.081 176.402Z" fill="black"/>
<path d="M749.093 264.957L773.391 322.356L691.164 318.295L696.753 264.957H749.093Z" fill="#FFB6B6"/>
<path d="M725.324 189.499L759.611 188.07L782.468 228.071L762.468 292.358L692.467 299.501L700.047 237.502L703.896 202.356L725.324 189.499Z" fill="#3F3D56"/>
<path d="M782.469 376.206C780.819 384.196 779.029 395.146 777.279 407.016C776.369 413.196 775.469 419.626 774.609 426.016C772.389 442.406 770.409 458.536 769.099 469.516C758.219 472.336 746.909 475.026 735.199 477.566L729.149 426.016L726.919 407.016L724.609 387.356L723.569 407.016L722.559 426.016L719.659 480.806C713.389 482.066 707.019 483.276 700.549 484.446C700.219 484.516 699.879 484.576 699.549 484.626C699.219 484.696 698.889 484.756 698.549 484.806C693.479 485.726 688.339 486.606 683.139 487.466L682.279 426.016L682.009 407.016L681.039 338.076L689.489 310.156L692.039 309.926L698.549 309.336L699.549 309.246L700.549 309.146L765.309 303.266L767.469 303.066C767.469 303.066 769.009 306.076 771.129 311.086C771.309 311.506 771.499 311.946 771.689 312.396C773.519 316.796 775.699 322.506 777.689 328.956C780.319 337.436 782.629 347.196 783.399 356.906C783.919 363.496 783.739 370.056 782.469 376.206Z" fill="#2F2E41"/>
<path d="M784.998 350.14C784.396 358.174 779.763 364.374 774.65 363.99C769.538 363.606 765.883 356.783 766.487 348.747C766.684 345.534 767.648 342.414 769.298 339.65L772.28 305.645L788.208 307.384L783.577 340.722C784.796 343.703 785.283 346.933 784.998 350.14Z" fill="#FFB6B6"/>
<path d="M766.477 214.946C766.477 214.946 769.804 196.316 777.093 196.181C784.382 196.046 792.813 205.867 792.813 205.867L798.85 268.929L785.132 330.446L769.153 327.242L776.559 266.882L766.477 214.946Z" fill="#3F3D56"/>
<path d="M737.927 182.232C751.708 182.232 762.881 171.06 762.881 157.278C762.881 143.497 751.708 132.324 737.927 132.324C724.145 132.324 712.973 143.497 712.973 157.278C712.973 171.06 724.145 182.232 737.927 182.232Z" fill="#FFB6B6"/>
<path d="M728.36 129.414C728.36 129.414 724.201 141.059 730.855 143.554C737.51 146.05 746.659 149.377 745.828 153.536C744.996 157.695 748.323 170.172 748.323 170.172C748.323 170.172 728.36 182.649 741.669 195.126C754.977 207.603 764.959 202.462 762.88 214.598C760.8 226.734 781.595 221.744 781.595 221.744C781.595 221.744 789.081 210.098 783.259 198.453C777.436 186.808 787.418 207.603 789.913 207.603C792.409 207.603 804.886 210.93 799.895 196.79C794.904 182.649 787.418 181.817 787.418 171.004C787.418 160.19 782.427 146.882 780.763 145.218C779.1 143.554 771.614 121.928 756.641 123.591C741.669 125.255 728.36 129.414 728.36 129.414Z" fill="#2F2E41"/>
<path d="M616.626 289.529L596.486 295.477L610.364 342.47L630.505 336.522L616.626 289.529Z" fill="#01A4FF"/>
<path d="M286.626 249.529L266.486 255.477L280.364 302.47L300.505 296.522L286.626 249.529Z" fill="#01A4FF"/>
<path d="M664.34 392.016V490.426C659.06 491.206 653.73 491.966 648.34 492.696V392.016H664.34Z" fill="#3F3D56"/>
<path d="M863.656 407.016H659.342V426.016H863.656V407.016Z" fill="#01A4FF"/>
<path d="M348.857 76.5647C362.155 76.5647 372.936 65.7841 372.936 52.4855C372.936 39.1869 362.155 28.4062 348.857 28.4062C335.558 28.4062 324.777 39.1869 324.777 52.4855C324.777 65.7841 335.558 76.5647 348.857 76.5647Z" fill="#E6E6E6"/>
<path d="M752.163 114.545C765.462 114.545 776.242 103.765 776.242 90.466C776.242 77.1674 765.462 66.3867 752.163 66.3867C738.865 66.3867 728.084 77.1674 728.084 90.466C728.084 103.765 738.865 114.545 752.163 114.545Z" fill="#E6E6E6"/>
<path d="M355.442 58.6191C354.152 58.5522 352.862 58.5225 351.572 58.5124C352.428 53.6958 353.284 48.8792 354.14 44.0626C354.337 42.9562 354.01 41.835 352.992 41.2394C352.02 40.6712 350.765 40.862 349.962 41.6303C347.585 43.9036 345.208 46.1769 342.831 48.4502C341.855 49.3836 341.891 51.046 342.831 51.9858C343.806 52.9608 345.388 52.9218 346.366 51.9858C346.892 51.4833 347.417 50.9809 347.942 50.4784L346.495 58.6226C345.085 58.6929 343.676 58.7847 342.27 58.9228C340.926 59.0549 339.77 59.9773 339.77 61.4228C339.77 62.8028 340.914 63.8927 342.27 63.9228C344.347 63.969 346.424 64.0153 348.501 64.0615C349.018 64.0731 349.587 63.8644 350.047 63.519C351.845 63.5019 353.644 63.5258 355.442 63.6191C356.792 63.6891 357.942 62.4199 357.942 61.1191C357.942 59.707 356.796 58.6893 355.442 58.6191Z" fill="white"/>
<path d="M543.068 48.1585C556.366 48.1585 567.147 37.3778 567.147 24.0792C567.147 10.7806 556.366 0 543.068 0C529.769 0 518.988 10.7806 518.988 24.0792C518.988 37.3778 529.769 48.1585 543.068 48.1585Z" fill="#01A4FF"/>
<path d="M549.653 30.2128C548.363 30.1459 547.073 30.1163 545.783 30.1061C546.639 25.2896 547.495 20.4729 548.351 15.6564C548.548 14.55 548.221 13.4288 547.202 12.8331C546.231 12.2649 544.976 12.4558 544.173 13.224C541.796 15.4974 539.419 17.7707 537.042 20.044C536.066 20.9773 536.102 22.6398 537.042 23.5795C538.017 24.5546 539.599 24.5156 540.577 23.5795C541.103 23.0771 541.628 22.5746 542.153 22.0722L540.706 30.2164C539.296 30.2867 537.887 30.3784 536.48 30.5166C535.137 30.6486 533.98 31.5711 533.98 33.0166C533.98 34.3966 535.125 35.4864 536.48 35.5166C538.558 35.5628 540.635 35.609 542.712 35.6553C543.229 35.6668 543.798 35.4581 544.258 35.1127C546.056 35.0957 547.855 35.1196 549.653 35.2128C551.003 35.2828 552.153 34.0137 552.153 32.7128C552.153 31.3008 551.007 30.283 549.653 30.2128Z" fill="white"/>
<path d="M189.095 114.502C202.393 114.502 213.174 103.722 213.174 90.423C213.174 77.1244 202.393 66.3438 189.095 66.3438C175.796 66.3438 165.016 77.1244 165.016 90.423C165.016 103.722 175.796 114.502 189.095 114.502Z" fill="#E6E6E6"/>
<path d="M196.419 97.249C194.349 96.1789 192.089 95.6089 189.819 95.5289C191.589 92.6789 192.809 89.4789 193.289 86.1789C193.569 84.209 193.599 82.2389 192.209 80.649C191.149 79.4289 189.619 78.959 188.069 78.8089C186.809 78.6889 185.309 78.769 184.119 79.1689C182.029 79.8489 181.339 81.649 181.389 83.699C181.439 85.649 181.739 87.6289 183.049 89.1589C183.949 90.209 185.259 90.899 186.629 91.009C185.369 93.6089 183.559 95.9089 181.269 97.839C180.319 98.629 180.349 100.219 181.069 101.119C181.849 102.099 183.179 102.379 184.299 101.759C187.239 100.119 190.919 100.029 193.899 101.569C195.099 102.189 196.609 101.879 197.319 100.669C197.979 99.5489 197.629 97.8689 196.419 97.249ZM188.479 84.449C188.479 84.6089 188.469 84.759 188.449 84.9189C188.439 85.009 188.429 85.089 188.429 85.139C188.419 85.1889 188.419 85.2289 188.409 85.2389V85.249C188.369 85.499 188.309 85.7389 188.269 85.9789C187.869 85.8689 187.449 85.8589 187.039 85.999C186.999 86.009 186.979 86.009 186.949 86.019H186.919C186.839 85.959 186.779 85.9089 186.939 86.009C186.849 85.9089 186.799 85.8489 186.769 85.829L186.699 85.699C186.709 85.739 186.709 85.769 186.709 85.7789C186.689 85.749 186.659 85.6589 186.609 85.499C186.559 85.319 186.509 85.129 186.469 84.939C186.409 84.639 186.399 84.249 186.389 83.809C186.429 83.809 186.469 83.7989 186.479 83.7989C186.769 83.7789 187.049 83.769 187.339 83.769C187.529 83.769 187.719 83.7889 187.909 83.7989C187.959 83.819 188.279 83.889 188.399 83.919C188.419 83.939 188.449 83.959 188.469 83.9689C188.489 83.999 188.499 84.019 188.529 84.049L188.479 84.449Z" fill="white"/>
<path d="M755.521 90.1469C757.201 88.8568 758.531 86.9569 758.391 84.7569C758.131 80.6969 754.151 78.8468 750.631 78.1668C749.301 77.9068 747.931 78.5368 747.551 79.9068C747.221 81.1369 747.971 82.7268 749.301 82.9868C749.871 83.0968 750.441 83.2268 751.011 83.3969C751.301 83.4768 751.591 83.5769 751.871 83.6969C751.951 83.7368 752.241 83.8668 752.291 83.8969C752.521 84.0169 752.761 84.1568 752.981 84.3168C753.001 84.3468 753.121 84.4569 753.201 84.5368C753.021 84.3969 753.361 84.9268 753.361 84.7968C753.381 84.8468 753.391 84.8869 753.401 84.9268V85.0169C753.401 85.0268 753.341 85.2268 753.361 85.2268C753.201 85.4868 753.141 85.6068 753.041 85.7069C752.611 86.1868 752.311 86.3668 751.681 86.6668C750.221 87.3768 748.611 87.7568 747.151 88.4968C744.611 89.7968 746.381 93.8468 749.081 93.0668C749.211 93.0368 749.331 92.9968 749.461 92.9668C749.531 92.9569 749.651 92.9368 749.731 92.9368C749.901 92.9368 750.061 92.9368 750.221 92.9468H750.281C750.611 93.0169 750.941 93.0968 751.251 93.2268C751.291 93.2468 751.351 93.2768 751.401 93.3168C751.541 93.3969 751.691 93.4868 751.831 93.5668L751.991 93.6768L752.001 93.6868C752.131 93.7868 752.241 93.9068 752.361 94.0169C752.381 94.0368 752.491 94.1668 752.551 94.2268C752.601 94.2968 752.701 94.4268 752.711 94.4469C752.801 94.5968 752.891 94.7569 752.971 94.9168C752.981 94.9469 752.991 94.9968 753.001 95.0468C753.021 95.1469 753.051 95.2568 753.081 95.3668C753.071 95.4068 753.091 95.5769 753.091 95.6868C753.091 95.7168 753.091 95.7368 753.101 95.7569C753.071 95.8869 753.031 96.0169 753.001 96.1469C752.991 96.1768 752.991 96.1868 752.991 96.1969C752.901 96.3668 752.801 96.5268 752.711 96.6868C752.701 96.7069 752.681 96.7168 752.671 96.7368V96.7468C752.561 96.8568 752.471 96.9569 752.361 97.0669C752.291 97.1369 752.201 97.2069 752.121 97.2768C752.061 97.3068 751.901 97.4268 751.861 97.4469C751.721 97.5169 751.591 97.5968 751.451 97.6668H751.441C751.431 97.6768 751.421 97.6768 751.411 97.6768C751.221 97.7368 751.041 97.7868 750.861 97.8369H750.831C750.661 97.8369 750.261 97.7868 750.261 97.8068C750.201 97.7968 750.121 97.7768 750.071 97.7669C749.961 97.7069 749.751 97.5968 749.751 97.5968C746.981 95.9368 744.461 100.267 747.221 101.917C751.701 104.597 757.801 100.997 758.081 95.9168C758.211 93.6068 757.151 91.5769 755.521 90.1469Z" fill="white"/>
</g>
<defs>
<clipPath id="clip0_112_132">
<rect width="863.656" height="506.446" fill="white"/>
</clipPath>
</defs>
</svg>
